<svg width="542" height="476" xmlns="http://www.w3.org/2000/svg"><style>.st3{fill:none}</style><g id="vect"><path d="M84 210h19.3c13.9 0 22.5 7.13 22.5 18.9 0 7.58-3.7 13.3-10.1 16.3l19.8 28h-15.3l-16.8-25.5h-6.59v25.5h-12.8zm12.8 10.9v15.8h7.22c5.41 0 8.57-2.89 8.57-8.03 0-4.78-3.16-7.76-8.57-7.76zM143 210h36.8v10.9h-24v14.6h20.4v10.9h-20.4v15.8h24v10.9H143zm12.5-5.42l10.2-12.2h13.2l-11.7 12.2zM195 210h20.8c13.9 0 22.4 7.13 22.4 18.9 0 11.6-8.48 18.8-22.4 18.8h-8.03v25.5h-12.8zm12.8 10.9v15.8h8.57c5.41 0 8.66-2.89 8.66-8.03 0-4.78-3.25-7.76-8.66-7.76zM286 210h12.8v38.4c0 16.6-9.74 26.5-25.6 26.5-15.8 0-25.5-9.92-25.5-26.5V210h12.8v39.5c0 8.48 4.78 13.4 12.8 13.4 7.85 0 12.7-4.96 12.7-13.4zM315 210h18c13.2 0 21.1 6.5 21.1 17.1 0 5.05-2.35 9.47-6.68 12.4 6.68 2.98 10.4 8.39 10.4 15 0 11.6-8.93 18.6-23.5 18.6h-19.3zm12.8 10.9v13.8h5.41c4.87 0 7.67-2.44 7.67-6.95 0-4.24-2.8-6.86-7.67-6.86h-5.41zm0 24.8v16.5h7.22c5.96 0 9.56-3.16 9.56-8.39s-3.61-8.12-9.56-8.12zM371 210h12.8v51.5h24v11.6H371zM419 210h12.8v63.2H419zM516 277c1.35 0 3.16-.18 4.51-.72v10.8c-2.08.81-3.88 1.17-6.68 1.17-7.04 0-13.5-2.89-19.8-8.3l-7.49-6.68c-2.71.72-5.59 1.08-8.66 1.08-19.9 0-33.6-15.3-33.6-33.4 0-18 13.6-33.4 33.6-33.4 19.8 0 33.5 15.3 33.5 33.4 0 10.6-4.69 20.2-12.4 26.4l3.79 3.61c4.88 4.42 9.21 6.04 13.3 6.04zm-17.8-36c0-12.1-8.48-21.4-20.3-21.4-11.9 0-20.4 9.29-20.4 21.4s8.48 21.4 20.4 21.4c11.8.01 20.3-9.29 20.3-21.4zM560 210h12.8v38.4c0 16.6-9.74 26.5-25.6 26.5-15.8 0-25.5-9.92-25.5-26.5V210h12.8v39.5c0 8.48 4.78 13.4 12.8 13.4 7.85 0 12.7-4.96 12.7-13.4zM589 210h36.8v10.9h-24v14.6h20.4v10.9h-20.4v15.8h24v10.9H589zM84 301h36.8v10.9h-24v14.6h20.4v10.9H96.8v26.7H84zM132 301h19.3c13.9 0 22.5 7.13 22.5 18.9 0 7.58-3.7 13.3-10.1 16.3l19.8 28h-15.3l-16.8-25.5h-6.59v25.5h-12.8zm12.8 10.9v15.8h7.22c5.41 0 8.57-2.89 8.57-8.03 0-4.78-3.16-7.76-8.57-7.76zM210 301h16.8l23.9 63.2h-13.6l-6.04-16.4h-25.3l-6.04 16.4h-13.6zm17 35.8l-8.66-23.7-8.66 23.7zM261 301h16.4l28.2 45.2V301h12.8v63.2H302l-28.2-45.4v45.4H261zM380 345l10.1 7.76c-4.87 6.68-12.4 11.4-21.6 12.5l-7.85 13.1h-11.4l7.94-13.3c-16.4-2.89-27.2-16.8-27.2-32.8 0-18 13.6-33.4 33.6-33.4 11.5 0 20.8 5.14 26.6 12.8l-10.1 7.85c-3.61-5.14-9.29-8.66-16.5-8.66-11.9 0-20.4 9.29-20.4 21.4s8.48 21.4 20.4 21.4c7.22 0 12.9-3.52 16.5-8.66zM417 301h16.8l23.9 63.2h-13.6l-6.04-16.4h-25.3l-6.04 16.4h-13.6zm17 35.8l-8.66-23.7-8.66 23.7zM468 301h12.8v63.2H468zM502 346c3.79 4.87 8.84 7.76 14 7.76 5.05 0 8.12-2.71 8.12-7.31 0-11.3-28.9-8.75-28.9-29.8 0-10 8.21-18.3 20.2-18.3 9.47 0 16.8 4.24 22.1 10.6l-9.38 8.39c-3.7-4.78-7.85-7.85-12.6-7.85-4.42 0-7.31 2.89-7.31 6.59 0 11.3 28.9 8.66 28.9 30-.18 11.7-9.38 19-20.9 19-10.6 0-17.9-3.88-23.5-10.6zM550 301h36.8v10.9h-24v14.6h20.4v10.9h-20.4v15.8h24v10.9H550zM290 538c1.71 0 3.2 1.3 2.41 4.58l-7.96 1.85c1.38-3.7 3.7-6.43 5.55-6.43m4.4 12.8h-1.57c-1.99 2.36-4.12 4.21-6.25 4.21-2.18 0-3.29-1.3-3.29-4.21 0-1.2.14-2.41.37-3.52l12.8-4.21c2.5-5.93-.51-8.52-4.03-8.52-6.07 0-13 10.1-13 19 0 3.98 1.9 6.16 4.86 6.16 3.47 0 7.08-3.38 10-8.94m-2.55-18.6l9.03-8.43v-.97h-4.86l-5.56 9.4zm-27.7 5.93h4.26l-6.76 18.5c-.6 1.57.23 3.15 1.85 3.15 3.84 0 10-3.8 12.2-8.98h-1.2c-1.71 1.81-5 4.21-7.83 4.72l6.21-17.4h6.34l.79-2.64h-6.16l2.36-6.67h-2.45l-4.4 6.67-5.23.74v1.9zm-5.74-.88c.51-1.71-.65-2.69-1.53-2.69-3.7 0-8.1 3.33-9.86 8.01h1.2c1.2-1.71 3.24-3.61 5.14-3.94l-7.08 18.4c-.65 1.71.65 2.69 1.53 2.69 3.52 0 7.64-3.38 9.4-8.01h-1.2c-1.2 1.71-3.24 3.61-5.14 3.94zm1.29-9.26c1.67 0 3.06-1.34 3.06-3.06 0-1.67-1.39-3.06-3.06-3.06a3.06 3.06 0 00-3.06 3.06c.01 1.71 1.35 3.06 3.06 3.06m-40.8 28.3c-.93 2.08.05 3.43 2.08 3.43 1.25 0 1.81-.32 2.32-1.67l4.91-13c2.27-2.78 6.95-5.74 8.8-5.74 1.34 0 1.16 1.11.28 2.78l-7.55 14.5c-.74 1.44.23 3.15 1.85 3.15 3.7 0 8.1-3.33 9.86-8.01h-1.2c-1.2 1.71-3.24 3.61-5.14 3.94l6.48-13.1c.83-1.67 1.25-3.24 1.25-4.49 0-2.13-1.2-3.52-3.43-3.52-3.2 0-6.44 3.61-10.3 8.06v-3.43c0-2.45-.79-4.63-3.01-4.63-1.39 0-2.73 1.2-3.98 2.92v.46c2.41-.14 3.47 3.47 1.76 7.27zm-.09-16.1c.88-3.01.42-5.65-1.9-5.65-2.73 0-3.43 2.08-6.21 8.06v-3.43c0-2.45-.79-4.63-3.01-4.63-2.59 0-4.95 4.03-6.76 8.01h1.2c1.25-1.81 2.41-2.87 3.33-2.87 1.11 0 1.71 1.71 0 5.51l-5 11.1c-.93 2.08.05 3.43 2.08 3.43 1.25 0 1.81-.32 2.32-1.67l4.91-13c1.39-1.71 2.64-3.2 4.21-4.86zm-28.4-2.22c1.71 0 3.2 1.3 2.41 4.58l-7.96 1.85c1.39-3.7 3.7-6.43 5.55-6.43m4.4 12.8h-1.57c-1.99 2.36-4.12 4.21-6.25 4.21-2.18 0-3.29-1.3-3.29-4.21 0-1.2.14-2.41.37-3.52l12.8-4.21c2.5-5.93-.51-8.52-4.03-8.52-6.07 0-13 10.1-13 19 0 3.98 1.9 6.16 4.86 6.16 3.48 0 7.09-3.38 10-8.94m-30.2-12.7h4.26l-6.76 18.5c-.6 1.57.23 3.15 1.85 3.15 3.84 0 10-3.8 12.2-8.98h-1.2c-1.71 1.81-5 4.21-7.83 4.72l6.21-17.4h6.34l.79-2.64h-6.16l2.36-6.67H174l-4.4 6.67-5.23.74v1.9zm-23.4 14.4c0-5.7 6.34-13.4 9.91-13.4.79 0 1.53.09 2.18.28l-3.7 9.86c-2.13 2.59-5.42 5.74-6.95 5.74-.88 0-1.44-.74-1.44-2.45m19.5-19l-1.94-.14-2.18 2.13h-.46c-10.6 0-19.7 11.8-19.7 20.5 0 2.41 1.48 3.8 3.8 3.8 2.73 0 5.42-3.89 8.43-8.06l-.14 1.48c-.37 4.26.93 6.58 3.15 6.58 2.59 0 4.95-4.03 6.76-8.01h-1.2c-1.25 1.81-2.41 2.87-3.33 2.87-.97 0-1.67-1.76 0-5.51zm-22.5 6.71c.88-3.01.42-5.65-1.9-5.65-2.73 0-3.43 2.08-6.21 8.06v-3.43c0-2.45-.79-4.63-3.01-4.63-2.59 0-4.95 4.03-6.76 8.01h1.2c1.25-1.81 2.41-2.87 3.33-2.87 1.11 0 1.71 1.71 0 5.51l-5 11.1c-.93 2.08.05 3.43 2.08 3.43 1.25 0 1.81-.32 2.32-1.67l4.91-13c1.39-1.71 2.64-3.2 4.21-4.86zm-35.5 18.6l.46-1.44c-6.16-1.16-6.95-1.16-4.49-7.87l2.5-6.9h6.81c3.06 0 3.1 1.25 2.64 4.58h1.76l4.08-11.2h-1.76c-1.53 2.64-2.73 4.58-6.07 4.58h-6.71l3.57-9.77c1.11-3.1 1.76-3.75 5.93-3.75h2.96c4.31 0 4.82 1.16 4.82 5.51h1.71l1.44-7.59h-25.6l-.46 1.44c4.95 1.02 5.42 1.48 3.1 7.87l-5.56 15.2c-2.32 6.34-3.29 6.85-8.98 7.87l-.42 1.44zM228 480c1.71 0 3.2 1.3 2.41 4.58l-7.96 1.85c1.38-3.69 3.69-6.43 5.55-6.43m4.39 12.8h-1.57c-1.99 2.36-4.12 4.21-6.25 4.21-2.18 0-3.29-1.3-3.29-4.21 0-1.2.14-2.41.37-3.52l12.8-4.21c2.5-5.93-.51-8.52-4.03-8.52-6.07 0-13 10.1-13 19 0 3.98 1.9 6.16 4.86 6.16 3.48 0 7.09-3.38 10-8.94m-2.54-18.6l9.03-8.43v-.97h-4.86l-5.56 9.4zm-27.7 5.92h4.26l-6.76 18.5c-.6 1.57.23 3.15 1.85 3.15 3.84 0 10-3.8 12.2-8.98h-1.2c-1.71 1.81-5 4.21-7.83 4.72l6.21-17.4h6.34l.79-2.64h-6.16l2.36-6.67h-2.45l-4.4 6.67-5.23.74v1.9zm-5.75-.88c.51-1.71-.65-2.69-1.53-2.69-3.7 0-8.1 3.33-9.86 8.01h1.2c1.2-1.71 3.24-3.61 5.14-3.94l-7.08 18.4c-.65 1.71.65 2.69 1.53 2.69 3.52 0 7.64-3.38 9.4-8.01h-1.2c-1.2 1.71-3.24 3.61-5.14 3.94zm1.3-9.26c1.67 0 3.06-1.34 3.06-3.06 0-1.67-1.39-3.06-3.06-3.06a3.06 3.06 0 00-3.06 3.06c.01 1.72 1.35 3.06 3.06 3.06m-24.6 27.7l12.9-33.8-.42-.51-8.1.93v.97l1.57 1.2c1.44 1.11.97 2.18-.32 5.6l-10.1 26.6c-.74 1.44.23 3.15 1.85 3.15 3.7 0 7.64-3.33 9.4-8.01h-1.2c-1.21 1.72-3.72 3.62-5.61 3.94m-24.6-3.15c0-5.7 6.34-13.4 9.91-13.4.79 0 1.53.09 2.18.28l-3.7 9.86c-2.13 2.59-5.42 5.74-6.95 5.74-.88.01-1.44-.73-1.44-2.45m19.5-19l-1.94-.14-2.18 2.13h-.46c-10.6 0-19.7 11.8-19.7 20.5 0 2.41 1.48 3.8 3.8 3.8 2.73 0 5.42-3.89 8.43-8.06l-.14 1.48c-.37 4.26.93 6.58 3.15 6.58 2.59 0 4.95-4.03 6.76-8.01h-1.2c-1.25 1.81-2.41 2.87-3.33 2.87-.97 0-1.67-1.76 0-5.51zm-47.1 30.8c0-2.45 2.36-3.98 5.74-5.33 1.11.56 2.78 1.16 5 1.9 3.52 1.16 4.86 1.62 4.86 2.69 0 2.27-3.84 3.98-9.08 3.98-4.39 0-6.52-.92-6.52-3.24m9.58-15c-1.53 0-2.13-1.3-2.13-2.78 0-4.12 2.22-10.2 5.7-10.2 1.53 0 2.13 1.3 2.13 2.78 0 4.13-2.22 10.2-5.7 10.2m10 12.7c0-2.96-2.64-4.03-6.95-5.33-3.7-1.11-5.37-1.44-5.37-2.64 0-.97.79-2.13 2.36-2.96 6.07-.32 10-5.79 10-10.4 0-.97-.19-1.81-.51-2.55h5.14l.79-2.64h-8.15c-.97-.6-2.13-.93-3.29-.93-6.44 0-10.6 5.65-10.6 10.2 0 3.47 2.22 5.65 4.91 6.16-3.01 1.34-4.68 2.92-4.68 4.77 0 1.07.37 1.81 1.25 2.5-6.95 2.04-9.68 4.35-9.68 7.64 0 3.2 4.21 4.54 9.22 4.54 8.48.01 15.6-4.58 15.6-8.42m-32.4-19.8c3.06 0 3.1 1.25 2.64 4.58h1.76l4.08-11.2h-1.76c-1.53 2.64-2.73 4.58-6.07 4.58h-6.71l3.38-9.31c1.11-3.1 1.76-3.7 5.93-3.7h2.96c4.31 0 4.82 1.16 4.82 5.46h1.71l1.44-7.59h-25.6l-.46 1.44c4.95 1.02 5.42 1.48 3.1 7.87l-5.56 15.2c-2.32 6.34-3.29 6.85-8.98 7.87l-.42 1.44h28.4l5.09-8.06h-1.94c-3.24 3.06-7.32 5.97-13 5.97-7.55 0-6.85-.32-4.35-7.22l2.69-7.36zm3.71-19.4l9.03-6.21v-.97h-5.46l-5 7.18zM224 422c1.71 0 3.2 1.3 2.41 4.58l-7.96 1.85c1.39-3.7 3.7-6.43 5.55-6.43m4.4 12.8h-1.57c-1.99 2.36-4.12 4.21-6.25 4.21-2.18 0-3.29-1.3-3.29-4.21 0-1.2.14-2.41.37-3.52l12.8-4.21c2.5-5.93-.51-8.52-4.03-8.52-6.07 0-13 10.1-13 19 0 3.98 1.9 6.16 4.86 6.16 3.48-.01 7.09-3.39 10-8.94m-2.54-18.6l9.03-8.43v-.97h-4.86l-5.56 9.4zm-26.5 5.93h3.38l-6.76 18.5c-.6 1.57.23 3.15 1.85 3.15 3.84 0 10-3.8 12.2-8.98h-1.2c-1.71 1.81-5 4.21-7.83 4.72l6.21-17.4h6.34l.79-2.64h-6.16l2.36-6.67h-2.45l-4.4 6.67-4.35.74v1.9zm-3.33 2.08c.88-3.01.42-5.65-1.9-5.65-2.73 0-3.43 2.08-6.21 8.06v-3.43c0-2.45-.79-4.63-3.01-4.63-2.59 0-4.95 4.03-6.76 8.01h1.2c1.25-1.81 2.41-2.87 3.33-2.87 1.11 0 1.71 1.71 0 5.51l-5 11.1c-.93 2.08.05 3.43 2.08 3.43 1.25 0 1.81-.32 2.32-1.67l4.91-13c1.39-1.71 2.64-3.2 4.21-4.86zm-28.4-2.22c1.71 0 3.2 1.3 2.41 4.58l-7.96 1.85c1.38-3.7 3.7-6.43 5.55-6.43m4.4 12.8h-1.57c-1.99 2.36-4.12 4.21-6.25 4.21-2.18 0-3.29-1.3-3.29-4.21 0-1.2.14-2.41.37-3.52l12.8-4.21c2.5-5.93-.51-8.52-4.03-8.52-6.07 0-13 10.1-13 19 0 3.98 1.9 6.16 4.86 6.16 3.47-.01 7.08-3.39 10-8.94m-31.4 5.18c-1.25 0-3.06-1.16-3.06-2.18 0-.32.56-1.76 1.25-3.57l2.08-5.51c2.22-2.64 5.6-5.46 7.5-5.46 1.16 0 2.04.74 2.04 2.45.01 5.06-4.71 14.3-9.81 14.3m14.6-16.3c0-3.75-1.39-5.14-3.98-5.14-3.24 0-6.3 3.43-9.35 7.59l7.73-20.3-.42-.51-8.1.93v.97l1.57 1.2c1.44 1.11.97 2.27-.32 5.6l-8.34 21.5c-.6 1.57-1.34 3.43-1.34 3.94 0 2.22 3.01 4.31 5.74 4.31 6.3 0 16.8-11.3 16.8-20m-25.2-2.45c.51-1.71-.65-2.69-1.53-2.69-3.7 0-8.1 3.33-9.86 8.01h1.2c1.2-1.71 3.24-3.61 5.14-3.94l-7.08 18.4c-.65 1.71.65 2.69 1.53 2.69 3.52 0 7.64-3.38 9.4-8.01h-1.21c-1.2 1.71-3.24 3.61-5.14 3.94zm1.3-9.26c1.67 0 3.06-1.34 3.06-3.06 0-1.67-1.39-3.06-3.06-3.06a3.06 3.06 0 00-3.06 3.06c0 1.72 1.34 3.06 3.06 3.06m-18.7-2.97H95.5l-.46 1.44c4.95 1.02 5.42 1.48 3.1 7.87l-5.46 15.2c-2.32 6.34-3.29 6.85-8.98 7.87l-.42 1.44h25.6l5.56-9.91h-1.94c-3.15 3.47-6.85 7.83-12.6 7.83-4.31 0-4.82-.74-2.5-7.22l5.46-15.2c2.27-6.34 3.29-6.85 8.98-7.87z" transform="translate(-83.8 -83.8)"/><path d="M179 158c.9-.9 1.81-1.87 2.71-2.84h-.02c1.68-1.91 3.33-3.72 5.29-5.39.59-.53 1.17-1 1.72-1.38.16-.16.16-.48.32-.63-.79.32-1.27.95-2.06 1.27-.16 0-.32-.16-.16-.32l1.69-1.27h-.11c-.16 0-.16-.16-.16-.32-2.06-.32-3.65 1.11-5.07 2.38-.32.16-.63-.16-.79-.16-2.38.79-4.12 2.85-6.5 3.8v-.32c-.95.32-1.87.89-2.85 1.11-1.43.32-2.69.16-3.96.16-1.92.19-3.84.62-5.76 1.03-.06.01-.11.03-.17.04-1.03.28-2 .67-2.95 1.19-.04.02-.07.04-.11.06-.08.1-.16.19-.23.27-.34.37-.63.72-1.09.95-.97.5-1.77 1.36-2.63 2.06-.06.05-.16.07-.25.08-.85.82-1.69 1.64-2.55 2.44-.06.06-.31.09-.48.06 0-.01.01-.01.01-.01l.09-.15c.13-.22.27-.45.41-.67.15-.25.31-.49.47-.74.22-.33.44-.65.67-.96.06-.08.04-.15-.01-.21a.311.311 0 00-.22-.08c.79-.77 1.73-1.42 2.66-1.99v-.03c-.11.04-.26-.05-.18-.16.1-.14.18-.29.27-.43.02-.05.03-.09.05-.14-.04-.04-.08-.08-.12-.13-.26.17-.53.32-.74.52-.38.34-.68 1.04-1.25 1.03-.04 0-.15-.01-.24-.03a.378.378 0 01-.17-.06c.01-.01.01-.02.02-.04.01-.01.02-.03.02-.04.01-.01.02-.03.02-.04.02-.05.05-.09.08-.14s.05-.09.08-.14c.02-.04.04-.07.06-.11.04-.07.07-.13.11-.2.03-.05.06-.1.08-.14.07-.12.14-.23.2-.35.03-.06.07-.11.1-.17.06-.1.11-.19.17-.29.08-.13 0-.24-.12-.28.29-.38.65-.7 1.09-.95h-.05c.61-.31 1.21-.68 1.82-1.02l.26-.23c-.9.3-1.72.71-2.52 1.24 0 0-.21.09-.27.14 0 0-.18.07-.4-.14-.02-.03-.04-.06-.04-.12.16-.32.63-.48.95-.79.16 0 .32 0 .32.16 5.07-3.96 12-3.01 17.9-5.07l1.43-.95c.79-.32 1.43-1.11 2.38-1.58 1.27-.95 2.22-2.06 2.69-3.64 0-.16-.16-.32-.16-.32a24.48 24.48 0 01-6.97 5.23c-3.33 1.74-6.97 1.43-10.5 1.9.16-.32.48-.32.79-.32 0-.48.32-.63.63-.95h.48c.16 0 .16-.32.32-.32.32 0 .79-.16.63-.16-.48-.63-1.43.48-2.22 0 .32-.32.16-.79.48-.95h.63c0-.32.32-.63.32-.63 2.38-1.43 4.6-2.54 6.81-3.8-.48 0-.79.48-1.27.16.32 0 0-.48.32-.48 1.74-.48 3.17-1.43 4.91-2.06-.63 0-1.11.48-1.74 0 .32-.16.48-.48.95-.48v-.48c0-.16.16-.16.32-.16-.16 0-.32-.16-.32-.16.16-.32.63-.16.95-.48-.16 0-.48 0-.48-.16.48-.63 1.27-.79 2.06-.95-.16-.32-.63 0-.63-.32 0-.16.16-.16.32-.16h-.32c-.32-.16-.16-.48-.16-.63.95-1.11.95-2.54 1.43-3.8-.16 0-.32 0-.32-.16-1.58 1.74-4.12 2.38-6.5 3.01h-.79c-.79.32-1.9.32-2.69-.16-.63-.32-.95-.79-1.58-1.27-1.27-.79-2.54-1.43-3.96-1.9-3.96-1.27-8.08-1.9-12.2-1.74 1.74-.95 3.67-1.03 5.55-1.58 2.69-.79 5.23-1.74 8.08-1.58-.48-.16-1.11 0-1.58 0-2.22-.16-4.44.48-6.81.95-1.58.32-3.01.95-4.6 1.27-.95.32-1.43 1.27-2.54 1.11v-.48c1.58-1.9 3.49-3.8 6.02-3.96 2.85-.48 5.55 0 8.4.32 2.06.16 3.96.63 6.02 1.11.79 0 .95 1.27 1.59 1.43.95.32 1.9 0 2.85.63 0-.32-.16-.63 0-.95.63-.63 1.43.16 2.06-.16 1.27-.79-1.11-2.22-1.74-3.33 0-.16.16-.32.16-.32 1.27 1.11 2.22 2.38 3.8 3.17.79.32 2.69.79 2.38-.16-.79-1.74-2.38-3.17-3.64-4.75v-.63c-.32 0-.32-.16-.48-.32v-.63c-.63-.32-.48-.95-.79-1.43-.48-.79-.16-1.9-.48-2.85s-.48-1.74-.63-2.69c-.48-2.69-1.11-5.07-1.43-7.61-.32-3.01 1.74-5.39 3.17-8.08 1.11-1.9 2.38-3.8 4.44-5.07.48-1.9 1.74-3.49 3.01-5.07 1.27-1.55 3.37-2.49 4.89-3.17a41.99 41.99 0 014.21-1.61h-109v83.9h77c3.02-2.17 6.03-3.2 10.2-5.28 2-.95 6.55-3.04 8.09-4.58zm-24.4-11.4c-.32 0-.95.16-.79-.16.16-.79 1.27-.79 1.9-1.11.32-.16.79-.48 1.11-.32.32.48.79.32 1.11.63-.96.96-2.22.48-3.33.96zm-24.2-3.49s-.16-.16-.16-.32c2.06-2.69 3.64-5.23 5.07-8.08 2.06-1.11 3.77-2.72 5.39-4.44 2.69-2.85 5.55-5.39 8.87-6.97 1.27-.48 2.85-.32 4.12.16-.48.63-1.27.48-1.9.95-.16 0-.32 0-.48-.16.16-.16.16-.32.16-.48-1.58 1.74-3.8 2.54-5.07 4.6-.95 1.58-1.58 3.65-3.64 4.12-.63.16.16-.48-.16-.32-4.91 3.01-8.4 6.66-12.2 10.9zm13.2-10.5c-.16.32-.33.35-.48.63-.16.32-.32.48-.63.63-.16 0-.32 0-.32-.16.16-.63.63-1.27 1.27-1.43.16.01.16.17.16.33zm7.36 23.7c-.07.17-.23.32-.39.46.2.04.34.13.21.25-.37.34-.72.68-1.2.84a.93.93 0 01-.24.03c-.19.19-.39.37-.59.55-.19.17-1.06.05-.79-.19.4-.36.77-.74 1.17-1.11.22-.2.46-.4.66-.63.11-.13.2-.25.34-.35.12-.08.96-.16.83.15zm-2.84-1.31c-.01.01-.03.02-.04.03-.59.42-1.18.84-1.81 1.21-.68.39-1.39.69-2.09 1.03-.01-.01-.01-.03-.02-.04a.208.208 0 00-.27-.06c-.6.32-1.11.75-1.6 1.21-.07.07-.15.14-.22.21l-.02.02c-.08.07-.15.15-.23.22l-.04.04c-.11.11-.22.23-.34.37-.08.09-.11.15-.21.22s-.37.06-.35-.12v-.03c-.09.05-.19.1-.28.14s-.17.09-.25.14c-.03-.01-.07-.02-.11-.02s-.08.01-.11.04c-.19.15-.39.31-.57.48-.33.3-.64.63-.92.98-.01 0-.01.01-.01.01-.01.01-.02.03-.03.04-.02.02-.03.04-.05.06s-.03.04-.05.07c0 .01-.01.01-.02.02-.04.05-.07.11-.11.16 0 0 0 .01-.01.01-.03.03-.07.05-.13.06l-.06-.09c-.02-.02-.03-.05-.04-.08-.05-.08-.09-.17-.14-.25v-.01c-.01-.03-.03-.05-.04-.08.17-.18.34-.38.5-.57.01-.01.02-.03.03-.04.06-.07.11-.14.16-.2.09-.11.18-.23.27-.34.03-.04.06-.08.1-.13.17-.23.34-.45.5-.67 0-.01.01-.01.01-.02l.07-.1c.08-.11.15-.23.22-.34.06-.1.12-.21.17-.32 0-.01.01-.02.01-.02.01-.01.01-.02.02-.03l.03-.06c.06-.12.11-.24.15-.37 0-.01.01-.03.01-.04.01-.03.02-.07.04-.1.02-.06.03-.12.05-.17 0-.01.01-.03.01-.04l.06-.23c.01-.04 0-.08-.02-.11.17-.3.38-.58.63-.86-.02.01-.05.03-.07.04-.23.15-.38.35-.59.51-.17.13-.49-.08-.29-.24.14-.1.24-.22.36-.33.01-.01.01-.02.02-.03.26-.26.51-.59.81-.8.18-.13.34-.24.49-.37.02-.02.05-.04.07-.06.11-.15.23-.28.35-.4l.02-.02c1.52-1.46 4.07-1.4 6.07-2.33.79-.32 1.74.16 2.54 0 .48 0 .95 0 1.43.32-1.44.79-2.76 1.67-4.06 2.48zm3.25-11c-.16-.16.48 0 .63-.32h-1.27c-.16 0-.16-.16-.16-.32-.79.16-1.74.48-2.54.63-1.11.32-2.06 1.11-3.33 1.43-1.74.63-3.17 2.06-5.07 2.69-.16 0-.16-.16-.16-.32.16-.48.79-.63 1.11-1.11 0-.16 0-.32-.16-.32 1.27-1.74 3.01-2.69 4.6-4.12v-.48c.48-.63 1.27-.95 1.58-1.74.16-.48.79-1.11 1.58-1.43-.16-.16-.48-.16-.48-.48-.63 0-1.27.32-1.9-.16.3-.3.63-.46.99-.56a.594.594 0 01-.36-.23c-.16-.32.31-.67.79-.79.63-.16 1.43-.16 1.9-.63-1.11-.16-2.38.32-3.49-.32.79-2.06 2.06-3.8 3.96-4.75.16 0 .48 0 .48.16 0 .79-.48 1.43-1.27 1.58 1.27.32 2.54.32 3.8.95-.16.32-.48.16-.63.16.79.48 1.74.16 2.54.79-.48.48-.95 0-1.43 0 4.91 1.43 10.1 2.54 14.3 5.7-3.49 1.74-7.13 2.54-10.9 3.33-.48 0-.79 0-1.27-.16 0 .16 0 .48-.16.48-.63 0-1.11 0-1.58.32-.6.34-1.56.49-2.03.02z" fill="#000091" transform="translate(-83.8 -83.8)"/><path d="M314 83.8h-90.2s.17.03.86.4c.73.39 1.68.9 2.28 1.21 1.16.61 2.29 1.37 3.02 2.54.32.48.79 1.43.48 2.06-.32.79-.48 2.06-1.27 2.38-.95.48-2.22.48-3.33.32-.63 0-1.27-.16-1.9-.32 2.38.95 4.6 2.06 6.18 4.28.16.32.79.48 1.43.48.16 0 .16.32.16.48-.32.32-.63.48-.48.95h.48c.79-.32.63-1.9 1.74-1.43.79.48 1.11 1.58.63 2.38-.63.63-1.27 1.11-1.9 1.58-.16.32-.16.79 0 1.11.48.63.63 1.27.79 1.9.48 1.11.63 2.38 1.11 3.49.63 2.38 1.27 4.75 1.11 7.13 0 1.27-.63 2.38-.16 3.64.32 1.27 1.11 2.22 1.74 3.33.63.95 1.27 1.58 1.74 2.54.95 1.58 2.69 3.17 1.9 5.07-.48 1.11-2.22.95-3.33 1.58-.95.79-.16 2.06.32 2.85.79 1.43-.95 2.38-2.06 2.85.32.48.95.32 1.11.63.16.79.95 1.27.48 2.06-.63.95-2.54 1.43-1.58 2.85.63 1.11.22 2.34-.16 3.49-.48 1.43-1.74 2.06-2.85 2.38-.95.32-2.06.32-3.01.16-.32-.16-.63-.32-.95-.32-2.69-.32-5.39-1.11-8.08-1.11-.79.16-1.58.32-2.22.63-.72.53-1.35 1.1-1.92 1.7l-.02.02-.35.38c-.07.08-.14.16-.2.24-.05.05-.09.11-.13.16-.46.58-.88 1.19-1.25 1.83-.02.04-.05.08-.07.12-.04.07-.08.15-.12.22-.52.96-.91 1.95-1.2 2.91-1.08 3.63-.61 6.74.15 7.5.21.21 5.23 1.76 8.73 3.32 1.64.73 2.79 1.29 3.74 1.89h88.6v-83.9z" fill="#e1000f" transform="translate(-83.8 -83.8)"/><path d="M230 114c.63.16 1.58.16 1.58.48-.32 1.27-2.22 1.58-3.17 2.85h-.48c-.48.32-.32 1.11-.79 1.11-.48-.16-.95 0-1.43.16.63.63 1.43 1.11 2.38.95.16 0 .48.32.48.63 0 0 .16 0 .32-.16.16 0 .32 0 .32.16v.63c-.48.63-1.27.32-1.9.48 1.27.32 2.54.32 3.64 0 .95-.32 0-1.9.63-2.69-.32 0 0-.48-.32-.48.32-.32.63-.79.95-.95.32 0 .79-.16.95-.48 0-.32-.63-.47-.48-.79.95-.63 1.74-1.58 1.43-2.54-.16-.48-1.43-.48-2.22-.79-.79-.32-1.74 0-2.69.16-.79 0-1.59.48-2.38.63-1.11.32-2.06.95-3.01 1.58 1.11-.48 2.22-.63 3.49-.95.96.01 1.77-.23 2.7.01z" fill="#9d9d9c" transform="translate(-83.8 -83.8)"/></g><g id="zone" fill="none"><path class="st3" transform="rotate(90 355 237.2)" d="M33.5-33.5h643v710h-643z"/><path class="st3" d="M83.8 83.8h542v475h-542z" transform="translate(-83.8 -83.8)"/></g></svg>