<svg width="544" height="81.8" xmlns="http://www.w3.org/2000/svg"><g fill="#0083ae"><path d="M6 10.3H0V.5h6zM-.2 63.4V15.9h6v47.4h-6zM53 23.3c2-2.8 4.4-4.8 7.2-6.2s6-2.2 9.6-2.2c6.4 0 11.2 2 14 5.8 3 3.8 4.4 10 4.4 18.6v24h-5.8V38.1c0-6.2-1-10.8-3.2-13.4-2-2.6-5.4-4-10.2-4-2.8 0-5 .6-7.2 1.6-2 1.2-3.6 2.6-4.8 4.8-.8 1.2-1.2 2.8-1.6 4.4s-.4 4.6-.4 8.6v23h-5.8V36.7c0-5.4-1.2-9.4-3.4-12s-5.6-3.8-10.2-3.8c-2.8 0-5.2.6-7.2 1.6-2 1.2-3.8 2.6-5 4.8-.8 1.2-1.2 2.8-1.6 4.4s-.4 4.6-.4 8.6v23h-6V15.9h6v5.4c1.8-2 4-3.6 6.4-4.8 2.4-1 5.2-1.6 8.4-1.6 3.6 0 6.8.8 9.8 2.2 3.2 1.6 5.4 3.6 7 6.2zM98 15.9h6v7.6c1.8-2.6 4.2-4.8 7.4-6.4s6.6-2.4 10.2-2.4c7.2 0 13 2.4 17.8 7.2 4.6 4.8 7 10.6 7 17.8 0 7-2.4 12.8-7 17.6S129 64.5 122 64.5c-3.8 0-7.4-.8-10.4-2.2s-5.6-3.6-7.6-6.6v22.6h-6zm6 23.4c0 5.4 1.8 10 5.4 13.8s7.8 5.8 12.6 5.8c5 0 9.2-1.8 12.8-5.4s5.4-8 5.4-13.4c0-5.6-1.8-10.2-5.4-14s-8-5.6-13-5.6c-4.6 0-8.8 1.8-12.4 5.6s-5.4 8.2-5.4 13.2zM151 39.8c0-7 2.4-12.8 7.2-17.8s10.4-7.4 17-7.4c6.8 0 12.8 2.4 17.6 7.2s7.2 10.6 7.2 17.4c0 7-2.4 13-7.2 18s-10.4 7.4-17.2 7.4-12.6-2.4-17.4-7.4c-4.8-4.5-7.2-10.4-7.2-17.4zm6.4 0c0 5.4 1.8 10 5.2 13.8 3.4 3.6 7.8 5.6 13 5.6 5 0 9.4-1.8 12.8-5.6 3.4-3.6 5.2-8.2 5.2-13.8s-1.8-10.2-5.2-13.8-8-5.4-13.2-5.4c-4.8 0-9 1.8-12.4 5.6-3.8 3.6-5.4 8.2-5.4 13.6zM212 63.8V22.3h-9v-6.2h9V.7h6v15.4h9v6.2h-9v41.2h-6zM228 48.8h6.2v.2c0 3 .8 5.4 2.6 7.4 1.6 2 3.8 3 6.2 3s4.4-.8 6-2.2 2.4-3.4 2.4-5.6-.6-4-1.8-5.4-3.6-2.6-6.8-3.8c-5.2-1.8-8.6-3.8-10.2-5.8s-2.4-4.6-2.4-7.8c0-3.8 1.4-6.8 4-9.4s6-3.8 9.8-3.8c4 0 7.2 1.2 9.6 3.4s3.6 5.6 3.8 9.6h-6.6c-.2-2.2-.8-4-2.2-5.2-1.2-1.2-3-1.8-5.2-1.8-2 0-3.6.6-5 2s-2 3-2 5c0 1.4.2 2.6.8 3.6s1.4 1.8 2.8 2.6c1.2.8 2.8 1.4 5 2s3.6 1.2 4.4 1.4c3 1.2 5.2 3 6.6 5s2 4.8 2 8c0 4-1.4 7.4-4.2 10.2-2.8 2.6-6.4 4-10.8 4s-8-1.4-10.8-4.4c-2.6-3.2-4-7.2-4.2-12.2z"/></g><g fill="#8f8f8f"><path d="M273 63.4h-6.2V52h6.2zM296 67.2c1 2.8 2.6 5 5 6.4 2.4 1.6 5.4 2.4 8.8 2.4 5.4 0 9.8-1.8 13-5.4s4.8-8.4 4.8-14.4V55c-2.2 3.2-5 5.4-7.8 7-3 1.6-6.2 2.4-9.6 2.4-7.2 0-13-2.4-17.8-7.2s-7-10.6-7-17.8c0-7 2.4-12.8 7-17.6s10.4-7.2 17.2-7.2c4 0 7.4.8 10.4 2.2s5.4 3.6 7.8 6.8v-7.8h6v39.6c0 8.2-2 14.8-6.2 19.4s-9.8 7-17.2 7c-5.4 0-10-1.4-13.8-4s-6.4-6.2-7.4-10.6h6.8zm-4.4-28.1c0 5.6 1.8 10.2 5.2 14 3.6 3.8 7.8 5.6 12.8 5.6 4.6 0 8.8-1.8 12.4-5.6s5.4-8.2 5.4-13.2c0-5.4-1.8-10-5.4-13.8s-7.6-5.8-12.4-5.8c-5 0-9.2 1.8-12.8 5.4-3.4 3.6-5.2 8.2-5.2 13.4zM340 39.5c0-7 2.4-12.8 7.2-17.8s10.4-7.4 17-7.4c6.8 0 12.8 2.4 17.6 7.2s7.2 10.6 7.2 17.4c0 7-2.4 13-7.2 18s-10.4 7.4-17.2 7.4-12.6-2.4-17.4-7.4c-4.8-4.5-7.2-10.4-7.2-17.4zm6.4 0c0 5.4 1.8 10 5.2 13.8 3.4 3.6 7.8 5.6 13 5.6 5 0 9.4-1.8 12.8-5.6 3.4-3.6 5.2-8.2 5.2-13.8s-1.8-10.2-5.2-13.8-8-5.4-13.2-5.4c-4.8 0-9 1.8-12.4 5.6-3.8 3.6-5.4 8.2-5.4 13.6zM396 15.9h6v25.2c0 6.4 1 11 3.2 13.8s5.6 4 10.4 4c2.8 0 5.2-.6 7.2-1.6 2-1.2 3.8-2.8 5-4.8.8-1.2 1.2-2.6 1.6-4.4.4-1.6.4-4.6.4-8.8V15.9h6v47.4h-6v-5.2c-1.8 2.2-3.8 3.8-6.2 4.8-2.2 1-5 1.6-8.2 1.6-6.8 0-11.8-1.8-14.8-5.6-3-3.6-4.6-9.8-4.6-18.4zM464 63.4h-5.6l-18.6-47.5h6.4l15.2 38.2 15.2-38.2h6.6z"/></g><g fill="#bcbcbc"><path d="M489 63.4h-6.2V52h6.2zM511 63.4h-6v-42h-6.4V16h6v-1.2c0-5 1.2-8.8 3.8-11.2S514.8 0 520 0h.6v5.4c-3.6 0-6.2.8-7.8 2.2s-2.2 3.8-2.2 7.2V16h10v5.4h-10zM533 63.4h-6.2V15.9h5.8v5.4c1.4-2 3.2-3.6 4.8-4.6 1.8-1 3.8-1.4 6.2-1.6v6.6c-3.8.4-6.6 1.4-8.2 3.4s-2.4 5-2.4 9.4z"/></g></svg>